<?xml version="1.0" encoding="UTF-8" standalone="no"?>
<!-- Created with Inkscape (http://www.inkscape.org/) -->

<svg
   xmlns:dc="http://purl.org/dc/elements/1.1/"
   xmlns:cc="http://creativecommons.org/ns#"
   xmlns:rdf="http://www.w3.org/1999/02/22-rdf-syntax-ns#"
   xmlns:svg="http://www.w3.org/2000/svg"
   xmlns="http://www.w3.org/2000/svg"
   version="1.1"
   width="500.60999"
   height="182"
   id="svg2">
  <defs
     id="defs4" />
  <metadata
     id="metadata7">
    <rdf:RDF>
      <cc:Work
         rdf:about="">
        <dc:format>image/svg+xml</dc:format>
        <dc:type
           rdf:resource="http://purl.org/dc/dcmitype/StillImage" />
        <dc:title></dc:title>
      </cc:Work>
    </rdf:RDF>
  </metadata>
  <g
     transform="translate(-113.03376,-486.85094)"
     id="layer1">
    <rect
       width="538.68921"
       height="219.00014"
       x="94.851944"
       y="463.02124"
       id="rect3021"
       style="fill:#f2f2f2;fill-opacity:0.94117647;stroke:none" />
    <g
       transform="matrix(0.26847933,0,0,0.26847933,265.78942,461.43639)"
       id="g3801">
      <g
         id="g3793">
        <g
           transform="matrix(0.95140582,0.30793987,-0.30793987,0.95140582,160.45555,-89.784172)"
           id="g3797">
          <path
             d="m 506.43526,165.10086 -97.9459,62.90204 -42.77061,62.9346 -77.15625,104.28125 15.71875,52.84375 -20,-22.84375 -2.84375,72.84375 -17.15625,-47.125 -15.71875,67.125 L 260,589.5 l 3.90625,4.28125 c 85.89431,-173.87663 186.62929,-223.68352 235.40625,-393.625 0,0 16.66569,71.99179 -130.8125,254.5 -41.22857,51.02147 -69.83805,95.90546 -90.75,149.09375 -0.36071,0.5834 -0.73048,1.18971 -1.09375,1.78125 l 41.90625,5.40625 65.71875,-31.4375 -40,-15.71875 44.28125,-2.84375 -37.125,-17.15625 51.40625,4.28125 30,-27.125 -50,-17.15625 62.875,-8.5625 91.4375,-134.28125 15.03637,-126.57949 z"
             id="path3001"
             style="fill:#116d89;fill-opacity:1;stroke:#000000;stroke-width:0;stroke-linecap:butt;stroke-linejoin:miter;stroke-miterlimit:4;stroke-opacity:1;stroke-dasharray:none" />
          <path
             d="M 254.86161,611.00847 188.4967,736.37314 270.48257,615.98878 z"
             id="path2999-1"
             style="fill:#116d89;fill-opacity:1;stroke:none" />
        </g>
      </g>
    </g>
  </g>
</svg>
