<?xml version="1.0" encoding="UTF-8" standalone="no"?>
<!-- Created with Inkscape (http://www.inkscape.org/) -->

<svg
   xmlns:dc="http://purl.org/dc/elements/1.1/"
   xmlns:cc="http://creativecommons.org/ns#"
   xmlns:rdf="http://www.w3.org/1999/02/22-rdf-syntax-ns#"
   xmlns:svg="http://www.w3.org/2000/svg"
   xmlns="http://www.w3.org/2000/svg"
   version="1.1"
   width="86.678711"
   height="66.633781"
   id="svg2">
  <defs
     id="defs4" />
  <metadata
     id="metadata7">
    <rdf:RDF>
      <cc:Work
         rdf:about="">
        <dc:format>image/svg+xml</dc:format>
        <dc:type
           rdf:resource="http://purl.org/dc/dcmitype/StillImage" />
        <dc:title></dc:title>
      </cc:Work>
    </rdf:RDF>
  </metadata>
  <g
     transform="translate(-1.5345439,-974.04452)"
     id="layer1">
    <g
       id="text2985"
       style="font-size:141.15327454px;font-style:normal;font-variant:normal;font-weight:normal;font-stretch:normal;line-height:125%;letter-spacing:0px;word-spacing:0px;fill:#000000;fill-opacity:1;stroke:none;font-family:Sans;-inkscape-font-specification:Terminal">
      <path
         d="m 31.597044,974.04452 0,5.84375 -5.1875,0 c -3.42185,5e-5 -6.0156,0.77349 -7.75,2.34375 -1.75778,1.54692 -2.62497,3.86723 -2.625,6.9375 3e-5,3.07035 0.86722,5.40628 2.625,7 1.7344,1.57034 4.32815,2.34377 7.75,2.34375 l 5.1875,0 0,5.84373 -4,0 c -2.81247,10e-5 -5.03903,0.5704 -6.65625,1.7188 -1.64059,1.1485 -3.32809,3.4844 -5.0625,7 l -6.6875001,13.4688 -7.65625,0 7.21875,-14.3438 c 1.4531701,-2.9531 2.9219101,-5.2813 4.3750001,-6.9688 1.42972,-1.6875 2.88284,-2.7968 4.40625,-3.3125 -2.92966,-0.8437 -5.13278,-2.35152 -6.65625,-4.53123 -1.5468401,-2.17966 -2.3437101,-4.91402 -2.3437501,-8.21875 4e-5,-5.06245 1.4844201,-8.86715 4.4375001,-11.375 2.95316,-2.50777 7.43753,-3.74995 13.4375,-3.75 l 5.1875,0 z"
         id="path3027"
         style="font-size:72px;fill:#ffffff;font-family:Sans;-inkscape-font-specification:Clean" />
      <path
         d="m 62.620704,1001.9268 c 1.52341,0.5156 2.99997,1.6172 4.42969,3.3047 1.45309,1.6875 2.90621,4.0078 4.35938,6.9609 l 16.80348,28.4859 -7.62891,0 -16.31129,-27.607 c -1.73441,-3.5156 -3.42191,-5.8476 -5.0625,-6.9961 -1.61722,-1.1484 -3.83206,-1.7226 -6.64453,-1.7226 l -7.73438,0 0,22.1836 -7.10156,0 0,-52.48832 16.03125,0 c 5.99997,5e-5 10.47653,1.25395 13.42969,3.76172 2.95308,2.50785 4.42964,6.29301 4.42968,11.35546 -4e-5,3.30473 -0.77347,6.04691 -2.32031,8.22657 -1.52347,2.17971 -3.75003,3.69147 -6.67969,4.53517 m -17.78906,-22.04299 0,18.63282 8.92969,0 c 3.42185,2e-5 5.99997,-0.78513 7.73437,-2.35547 1.75778,-1.59372 2.63669,-3.92575 2.63672,-6.9961 -3e-5,-3.07027 -0.87894,-5.37886 -2.63672,-6.92578 -1.7344,-1.57026 -4.31252,-2.35542 -7.73437,-2.35547 l -8.92969,0"
         id="path3029"
         style="font-size:72px;fill:#ffffff;font-family:Sans;-inkscape-font-specification:Clean" />
    </g>
  </g>
</svg>
