<?xml version="1.0" encoding="UTF-8" standalone="no"?>
<!-- Created with Inkscape (http://www.inkscape.org/) -->

<svg
   xmlns:dc="http://purl.org/dc/elements/1.1/"
   xmlns:cc="http://creativecommons.org/ns#"
   xmlns:rdf="http://www.w3.org/1999/02/22-rdf-syntax-ns#"
   xmlns:svg="http://www.w3.org/2000/svg"
   xmlns="http://www.w3.org/2000/svg"
   version="1.1"
   width="78"
   height="52.50008"
   id="svg2">
  <defs
     id="defs4" />
  <metadata
     id="metadata7">
    <rdf:RDF>
      <cc:Work
         rdf:about="">
        <dc:format>image/svg+xml</dc:format>
        <dc:type
           rdf:resource="http://purl.org/dc/dcmitype/StillImage" />
        <dc:title></dc:title>
      </cc:Work>
    </rdf:RDF>
  </metadata>
  <g
     transform="translate(-1.5345439,-974.04452)"
     id="layer1"
     style="fill:#ff993b;fill-opacity:1">
    <g
       id="text2985"
       style="font-size:141.15327454px;font-style:normal;font-variant:normal;font-weight:normal;font-stretch:normal;line-height:125%;letter-spacing:0px;word-spacing:0px;fill:#ff993b;fill-opacity:1;stroke:none;font-family:Sans;-inkscape-font-specification:Terminal">
      <path
         d="m 31.597044,974.04452 0,5.84375 -5.1875,0 c -3.42185,5e-5 -6.0156,0.77349 -7.75,2.34375 -1.75778,1.54692 -2.62497,3.86723 -2.625,6.9375 3e-5,3.07035 0.86722,5.40628 2.625,7 1.7344,1.57034 4.32815,2.34377 7.75,2.34375 l 5.1875,0 0,5.84373 -4,0 c -2.81247,10e-5 -5.03903,0.5704 -6.65625,1.7188 -1.64059,1.1485 -3.32809,3.4844 -5.0625,7 l -6.6875001,13.4688 -7.65625,0 7.21875,-14.3438 c 1.4531701,-2.9531 2.9219101,-5.2813 4.3750001,-6.9688 1.42972,-1.6875 2.88284,-2.7968 4.40625,-3.3125 -2.92966,-0.8437 -5.13278,-2.35152 -6.65625,-4.53123 -1.5468401,-2.17966 -2.3437101,-4.91402 -2.3437501,-8.21875 4e-5,-5.06245 1.4844201,-8.86715 4.4375001,-11.375 2.95316,-2.50777 7.43753,-3.74995 13.4375,-3.75 l 5.1875,0 z"
         id="path3027"
         style="font-size:72px;fill:#ff993b;fill-opacity:1;font-family:Sans;-inkscape-font-specification:Clean" />
      <path
         d="m 36.1875,0 0,51.9375 7.125,0 0,-21.625 7.71875,0 c 2.81247,0 5.03903,0.57035 6.65625,1.71875 1.64059,1.1485 3.32809,3.4844 5.0625,7 l 7.625,12.90625 7.625,0 -8.125,-13.78125 C 68.42183,35.20315 66.98434,32.875 65.53125,31.1875 64.10153,29.5 62.61716,28.3906 61.09375,27.875 c 2.92966,-0.8437 5.16403,-2.35154 6.6875,-4.53125 1.54684,-2.17966 2.31246,-4.91402 2.3125,-8.21875 C 70.09371,10.06255 68.60933,6.25785 65.65625,3.75 62.70309,1.24223 58.21872,5e-5 52.21875,0 L 36.1875,0 z m 7.125,5.84375 8.90625,0 c 3.42185,5e-5 6.0156,0.77349 7.75,2.34375 1.75778,1.54692 2.62497,3.86723 2.625,6.9375 -3e-5,3.07035 -0.86722,5.40628 -2.625,7 -1.7344,1.57034 -4.32815,2.34377 -7.75,2.34375 l -8.90625,0 0,-18.625 z"
         transform="translate(1.5345439,974.04452)"
         id="path3029"
         style="font-size:72px;fill:#ff993b;fill-opacity:1;font-family:Sans;-inkscape-font-specification:Clean" />
    </g>
  </g>
</svg>
